<svg width='16' height='16' xmlns="http://www.w3.org/2000/svg">
    <defs>
        <symbol id="svg_search" viewBox="0 0 16 16">
            <path d="M14.2385 16L11 12.7615L12.7615 11L16 14.2385L14.2385 16Z"></path>
            <path fill-rule="evenodd" d="M7.5 13C10.5376 13 13 10.5376 13 7.5C13 4.46243 10.5376 2 7.5 2C4.46243 2 2 4.46243 2 7.5C2 10.5376 4.46243 13 7.5 13ZM7.5 14C11.0899 14 14 11.0899 14 7.5C14 3.91015 11.0899 1 7.5 1C3.91015 1 1 3.91015 1 7.5C1 11.0899 3.91015 14 7.5 14Z"></path>
        </symbol>
    </defs>
    <use href="#svg_search" fill="#333333"></use>
</svg>
