<svg xmlns="http://www.w3.org/2000/svg" class="sHistory" width="16" height="16">
    <defs>
        <symbol id="svg_history" viewBox="0 0 16 16">
            <path d="M1.81745 11.9049C2.58226 13.406 3.83016 14.6058 5.36005 15.3111C6.88995 16.0164 8.61275 16.186 10.2508 15.7928C11.8889 15.3995 13.3469 14.4662 14.3899 13.1432C15.4328 11.8202 16 10.1846 16 8.5C16 6.81536 15.4328 5.17977 14.3899 3.8568C13.3469 2.53382 11.8889 1.6005 10.2508 1.20723C8.61275 0.813954 6.88995 0.983634 5.36005 1.68893C3.83016 2.39422 2.58226 3.59404 1.81745 5.09507L2.70623 5.54793C3.36932 4.24654 4.45125 3.20629 5.77767 2.5948C7.10409 1.98331 8.59775 1.8362 10.018 2.17716C11.4382 2.51813 12.7023 3.32732 13.6065 4.47434C14.5108 5.62136 15.0025 7.03942 15.0025 8.5C15.0025 9.96058 14.5108 11.3786 13.6065 12.5257C12.7023 13.6727 11.4382 14.4819 10.018 14.8228C8.59775 15.1638 7.10409 15.0167 5.77767 14.4052C4.45125 13.7937 3.36932 12.7535 2.70623 11.4521L1.81745 11.9049Z"></path>
            <path d="M0 5H5L2.5 8L0 5Z"></path>
            <path d="M11.1464 11.8536L8 8.70711L8 4L9 4L9 8.29289L11.8536 11.1464L11.1464 11.8536Z"></path>
        </symbol>
    </defs>
    <use href="#svg_history" fill="#333333"></use>
</svg>
