<svg xmlns:xlink="http://www.w3.org/1999/xlink" xmlns="http://www.w3.org/2000/svg" class="sNotify" width="16"  height="16" >
    <defs>
        <symbol id="svg_notify" viewBox="0 0 16 16">
            <path d="M5 14C7 16.6667 9 16.6667 11 14H5Z"></path>
            <path d="M8 2.5C9 2.5 9 2.75 9 2C9 1.44772 8.55228 1 8 1C7.44772 1 7 1.44772 7 2C7 2.75 7 2.5 8 2.5Z"></path>
            <path fill-rule="evenodd" d="M11.5 5C11.5 3.6 10.1333 2.5 8 2.5C5.86667 2.5 4.5 3.6 4.5 5C4.5 6.85872 3.55899 8.7339 2.64645 9.64645C2.12785 10.165 1.58661 10.8338 1.30279 11.4014C1.2303 11.5464 1.16812 11.6974 1.12928 11.8472C1.09156 11.9927 1.06754 12.1685 1.10346 12.3481C1.14265 12.544 1.25162 12.7294 1.44322 12.8534C1.61932 12.9673 1.81985 13 2 13H8.00023H14C14.1802 13 14.3807 12.9673 14.5568 12.8534C14.7484 12.7294 14.8574 12.544 14.8965 12.3481C14.9325 12.1685 14.9084 11.9927 14.8707 11.8472C14.8319 11.6974 14.7697 11.5464 14.6972 11.4014C14.4134 10.8338 13.8722 10.165 13.3536 9.64645C12.441 8.7339 11.5 6.85872 11.5 5ZM13.8705 12C13.8535 11.9559 13.8312 11.9054 13.8028 11.8486C13.5866 11.4162 13.1278 10.835 12.6464 10.3536C11.559 9.2661 10.5 7.14128 10.5 5C10.5 4.4 9.86667 3.5 8 3.5C6.13333 3.5 5.5 4.4 5.5 5C5.5 7.14128 4.44101 9.2661 3.35355 10.3536C2.87215 10.835 2.41339 11.4162 2.19721 11.8486C2.16879 11.9054 2.14651 11.9559 2.12953 12H8.00006H13.8705Z"></path>
        </symbol>
    </defs>
    <use xlink:href="#svg_notify" href="#svg_notify" fill="#333333"></use>
</svg>